<svg xmlns="http://www.w3.org/2000/svg" width="105" height="106" viewBox="0 0 105 106">
  <path fill="#34e853" fill-rule="evenodd" d="M159.127077,128.01985 C159.29127,126.224496 156.867012,125.31234 155.720077,126.364456 C154.585215,127.402094 154.679384,129.552175 156.239216,130.001013 C157.279908,130.302652 158.965299,129.769355 159.127077,128.01985 M234.194564,89.8999483 C234.361172,88.1070074 231.934499,87.1948517 230.787564,88.2469678 C229.655117,89.2821921 229.746872,91.4322732 231.309118,91.8835248 C232.34981,92.1827505 234.032786,91.6494532 234.194564,89.8999483 M159.279197,133.198384 C155.992927,132.546845 153.841518,136.85666 155.565542,139.180485 C157.267835,141.472939 161.263997,141.711837 162.396445,138.915043 C163.152214,137.047295 162.485785,133.833032 159.279197,133.198384 M215.309981,138.972957 C214.269288,136.916987 211.016823,137.573353 210.488025,139.494189 C209.966472,141.390894 211.528718,143.654391 213.525592,143.084897 C214.860865,142.701212 216.321698,140.978252 215.309981,138.972957 M181.763948,57.1443905 C180.723256,55.0860075 177.473205,55.7471997 176.944407,57.6656223 C176.420439,59.5599138 177.9851,61.8282374 179.981974,61.2563303 C181.314833,60.8726458 182.77808,59.1496851 181.763948,57.1443905 M174.179691,51.6352599 C173.484286,50.2597871 171.308732,50.7013863 170.953786,51.9851609 C170.606083,53.2544569 171.651605,54.7698901 172.986879,54.3886187 C173.88028,54.132829 174.860608,52.9793623 174.179691,51.6352599 M239.663632,89.938558 C236.792673,89.369064 234.9117,93.1335159 236.418411,95.1653547 C237.905804,97.1682362 241.397315,97.3757636 242.384886,94.9336961 C243.048901,93.3000205 242.466983,90.4935734 239.663632,89.938558 M172.272157,60.1607783 C169.715096,58.4426438 165.996613,60.9571046 165.600618,63.85525 C165.122528,67.3446073 169.703023,69.8470026 172.221451,68.083019 C175.411137,65.8508921 174.831633,61.8789127 172.272157,60.1607783 M200.332219,56.0247074 C203.826145,56.8355124 205.475316,59.9508377 205.277319,63.13373 C205.021372,67.2263649 202.167315,68.8576274 200.018321,72.1298048 C198.557489,74.3474531 199.593352,77.7644171 201.77615,80.0013703 C204.333211,82.6171817 208.404226,83.2928526 210.314174,82.1924743 C213.158572,80.5515594 212.665994,79.0554311 215.691487,76.6761044 C218.231646,74.6780492 222.780752,75.2330645 224.154659,77.7595909 C225.767612,80.7373689 224.260901,84.5452568 220.967388,85.9207296 C218.912563,86.7773837 214.848792,86.806341 213.448324,89.4969589 C212.18066,91.9342002 213.371057,98.2999848 216.814276,99.8033525 C221.527575,101.866562 224.42268,96.3719098 230.761004,97.8414939 C237.321471,99.3617533 238.637428,107.264689 232.115594,109.897392 C226.639282,112.105388 221.793181,108.159953 218.605909,108.526746 C213.276888,109.144502 212.308633,114.569174 212.629775,118.6787 C212.789139,120.683995 213.892611,122.462457 216.529353,122.974037 C218.787004,123.408396 219.967743,126.282411 219.040537,128.000545 C217.920163,130.080646 214.235484,130.280934 213.144085,128.162223 C212.30139,126.528548 211.492499,125.961467 210.386612,125.780484 C207.257291,125.266491 203.398761,128.085004 202.993108,131.395791 C202.76855,133.227342 202.927914,136.287166 204.997226,138.140434 C207.073781,139.998529 207.892331,143.065592 206.685031,145.177063 C205.557413,147.155814 202.454652,147.739786 200.588167,146.393271 C198.497124,144.882664 197.567503,142.375443 197.606136,139.47971 C197.647185,136.067572 196.2274,134.622119 194.276403,133.86199 C192.137068,133.03188 184.386203,133.306974 182.775665,137.988408 C181.976433,140.314646 183.835675,142.879783 183.898454,147.778396 C183.970892,153.487815 180.614599,156.188085 175.558427,155.326605 C171.277342,154.597846 170.229406,151.566979 170.437061,148.150015 C170.690594,143.958443 172.409789,141.72149 174.694001,139.137049 C177.101356,136.417473 173.906841,131.251005 170.548133,130.780448 C166.998672,130.280934 164.132542,129.807965 163.260871,125.343711 C162.678953,122.36352 160.356108,118.048879 156.154705,118.302255 C150.504542,118.644917 148.16238,126.593702 141.556035,123.169498 C137.518825,121.077332 137.748212,114.851508 140.710926,112.993413 C144.101023,110.867463 147.691533,111.786858 150.81844,111.876143 C154.561069,111.984733 155.82149,108.893539 155.997756,105.174936 C156.174022,101.444267 154.500704,98.4954468 151.933985,98.106936 C149.550775,97.7473826 146.761912,98.7246922 144.702259,96.4587818 C142.459096,93.9877569 143.685712,89.3232149 147.894359,89.5621128 C152.168201,89.8082501 151.209605,92.325124 154.961893,93.2855419 C158.668303,94.2338942 162.633075,87.0283471 161.263997,83.7296255 C158.921836,78.1022525 150.796708,82.2214316 147.817092,74.8107702 C146.53494,71.6206386 147.635997,67.6028101 150.668734,65.8581314 C153.706301,64.1110396 158.100872,64.8880611 160.266768,67.4773284 C162.75622,70.4551063 162.278129,73.2880977 165.250501,75.7736012 C168.010389,78.0805345 171.402901,76.929481 173.293533,75.5902048 C178.282096,72.0598246 182.051286,73.2494879 185.248215,73.7924377 C187.187139,74.1230338 190.154682,74.0458143 191.465809,71.0318397 C193.107737,67.2577353 190.915281,65.6988661 192.4896,60.6844232 C193.291247,58.1313526 196.352959,55.1004862 200.332219,56.0247074" transform="translate(-138 -50)"/>
</svg>
