<svg xmlns="http://www.w3.org/2000/svg" width="187" height="153" viewBox="0 0 187 153">
  <path fill="#e22438" fill-rule="evenodd" d="M206.458073,9.46768591 C210.512235,7.97485722 209.983003,1.78465983 206.51715,0.390205356 C203.10299,-0.987033633 198.544212,1.43297202 199.17929,5.26956635 C199.605137,7.83467396 202.504835,10.9236243 206.458073,9.46768591 M275.332051,5.40483089 C277.013285,4.16777516 277.19544,1.24852037 275.15482,0.417258265 C273.791125,-0.141015397 271.43789,0.338558894 270.965274,2.67986518 C270.482811,5.07773663 273.628664,6.65910211 275.332051,5.40483089 M233.20274,147.535895 C231.265506,146.756279 228.683347,148.128599 229.045194,150.302669 C229.283963,151.756148 230.925813,153.50475 233.17074,152.680866 C235.464898,151.834848 235.16459,148.327807 233.20274,147.535895 M237.31844,142.253199 C235.728283,145.258532 237.520287,149.675534 241.111678,149.456651 C243.511683,149.30909 246.627996,146.94319 245.665533,143.172998 C244.675993,139.306892 238.933212,139.203599 237.31844,142.253199 M288.466846,133.298687 C285.837918,133.768423 283.972068,137.009854 285.842841,139.12244 C287.093305,140.53411 290.064387,141.316185 291.932699,138.898639 C293.845318,136.419608 291.132697,132.824031 288.466846,133.298687 M164.104762,92.702108 C162.21922,92.5865183 159.565676,94.1334528 159.957061,97.1609192 C160.355831,100.267085 164.818609,100.894221 166.369381,98.6734227 C167.895538,96.4845965 166.920767,92.8742628 164.104762,92.702108 M165.692457,106.223644 C164.432147,106.147404 162.657374,107.180333 162.918298,109.209301 C163.184144,111.284997 166.172458,111.705547 167.208768,110.220096 C168.230308,108.75678 167.577999,106.339233 165.692457,106.223644 M179.051252,102.310809 C173.955857,103.724939 172.897394,109.074036 175.39586,112.433516 C177.894326,115.792995 183.797107,114.255898 185.618649,110.724264 C187.811884,106.469579 183.078336,101.191803 179.051252,102.310809 M308.661346,78.1476431 C306.029956,78.6173799 304.164107,81.8588103 306.034879,83.9713965 C307.285343,85.3830665 310.256426,86.1651415 312.124737,83.7475952 C314.037356,81.268565 311.327197,77.6729875 308.661346,78.1476431 M318.556749,73.1379362 C319.839213,71.4803308 318.022595,69.0726219 316.240437,69.3898787 C314.477972,69.7046762 313.22997,71.8738276 314.482896,73.2879569 C315.31982,74.2323494 317.306286,74.7537327 318.556749,73.1379362 M275.509282,18.230369 C278.581288,19.1870582 281.07237,15.2963581 279.664367,12.9034053 C278.273595,10.5424242 274.485281,9.90791051 273.119124,12.458262 C272.208353,14.1650546 272.516046,17.3007327 275.509282,18.230369 M333.306316,125.099196 C331.755544,128.092231 335.489705,131.687809 338.290941,130.799981 C341.055254,129.924451 342.386949,126.092775 339.890944,124.021998 C338.222018,122.637381 334.817704,122.179941 333.306316,125.099196 M344.110029,71.7385631 C341.717409,69.7784569 336.708169,69.2890451 334.315549,73.6863725 C331.86139,78.1943708 337.18817,83.3098299 341.382639,81.8465135 C345.513109,80.4028719 347.689113,74.6701146 344.110029,71.7385631 M338.438634,93.3218655 C339.386328,97.3060212 336.846015,101.526275 333.210316,103.577377 C336.506322,111.703087 332.169083,123.453887 324.365991,126.444463 C314.199818,130.342541 309.665656,120.399368 305.077339,120.674816 C301.050254,120.915832 302.133333,128.102069 291.32962,131.114779 C283.484682,133.303605 275.415744,129.993313 270.332657,121.796282 C268.934501,119.538593 268.159115,117.145641 267.851422,114.747769 C267.686498,113.463986 266.502496,112.551565 265.222494,112.748313 C265.212647,112.748313 265.202801,112.750773 265.192955,112.753232 C261.552333,113.323802 259.578175,116.188951 258.69202,118.741762 C257.483402,122.216831 259.563406,127.629872 261.382486,129.92691 C266.226803,136.048246 268.479115,141.894133 261.714795,145.064242 C255.807091,147.833477 250.615696,143.556658 250.411388,136.815565 C250.23908,131.053295 250.970159,128.889062 249.828003,125.790275 C248.282153,121.597074 239.354136,119.486947 234.17505,122.022542 C232.173815,122.998906 230.081503,126.542837 230.60335,129.398149 C232.796585,141.404722 214.691935,138.728943 221.062409,128.311114 C224.405185,122.843967 221.712256,117.600621 217.643326,115.451145 C214.455627,113.764027 208.594693,112.044938 205.121455,115.31834 C200.705447,119.47711 199.834061,128.780851 192.222969,128.490647 C186.256189,128.261927 183.322029,123.409619 185.76388,118.001496 C188.449424,112.054775 196.749747,113.75419 199.747907,108.892044 C205.342994,99.8293197 198.194673,86.7455493 191.666661,84.846927 C188.434654,83.9049939 185.714649,83.9689372 182.842028,85.1740213 C177.079556,87.5891082 170.064158,87.9235805 167.513999,80.784072 C165.714611,75.7546903 168.961386,69.5940052 176.343554,70.6318532 C181.805719,71.3967127 184.0728,74.0134667 188.471577,74.3626952 C192.4002,74.672574 197.370056,74.0380603 199.029136,68.7824179 C200.951601,62.712729 197.542364,58.9818869 194.950359,58.7088985 C190.704197,58.2637552 186.03465,55.6027327 188.107269,51.3701822 C190.40635,46.6801915 195.523899,47.5729375 197.909134,51.9948584 C199.034059,54.075473 202.074065,54.4615918 204.50607,53.1974832 C207.341767,51.72187 209.795926,46.7834844 209.626079,44.1273807 C209.394694,40.5367219 206.93069,39.3095036 202.925759,36.9411444 C197.320825,33.6259334 192.78174,26.5405307 197.911596,20.9012289 C201.896834,16.521117 209.475925,18.8402891 211.322083,24.8411161 C212.279623,27.9522006 210.349773,33.7882508 216.998401,36.6189688 C219.290098,37.5928736 221.899334,38.2175498 224.658724,36.9608192 C226.625497,36.0606952 228.2895,34.4940858 227.553498,32.4626583 C225.027955,25.4854672 235.75536,24.1992244 234.736281,31.9166814 C234.428588,34.253069 237.340594,36.2205533 241.224909,35.7311416 C245.495687,35.1900834 247.979384,33.7243076 249.266771,29.4622448 C250.591081,25.0722955 248.823693,23.1466203 250.933235,17.6327456 C253.114163,11.939338 258.187403,9.53900721 264.710493,12.8492995 C269.23727,15.1463374 271.430505,22.6424525 263.425567,27.9103916 C260.757254,29.6663713 258.896328,32.6274351 258.261249,35.2122176 C257.471094,38.4216763 257.941249,41.6581879 261.951103,44.2134581 C266.167726,46.8990741 270.834812,45.1086635 272.016353,42.3468074 C274.559127,36.3804114 276.432361,34.8654485 280.319138,35.5024215 C283.615144,36.0434797 286.800381,39.9120456 284.223145,43.8765264 C281.754218,47.6762304 278.527134,46.434256 276.363438,48.8518023 C273.643433,51.8940248 274.113588,56.013445 275.482206,58.9597527 C277.552363,63.4161046 281.808371,67.4519067 285.412071,66.7632872 C289.557309,65.9762935 292.356084,60.2804265 298.054556,60.858375 C307.12042,61.7781739 310.217041,70.617097 303.607798,75.6317226 C297.483478,80.2774448 290.002849,73.779828 283.617606,77.7492275 C280.663754,79.5839066 277.64344,83.3098299 276.868054,88.1818129 C276.572669,90.0140326 278.502519,91.43554 280.166522,90.6091966 C285.084685,88.1768941 290.40408,88.7597614 295.533936,91.4379993 C303.89826,95.8058144 303.154874,101.654161 308.434884,102.138654 C311.255812,102.396887 313.377663,96.4919745 319.40352,95.6631718 C319.17952,92.3627169 320.548138,89.1188272 322.490295,87.1956114 C327.846613,81.8907819 336.7894,86.376646 338.438634,93.3218655" transform="translate(-159)"/>
</svg>
