<svg xmlns="http://www.w3.org/2000/svg" xmlns:xlink="http://www.w3.org/1999/xlink" width="107" height="90" viewBox="0 0 107 90">
  <defs>
    <path id="logo-splatoon-2-a" d="M4.19045981,0.674702581 C5.17196371,2.39984615 6.90068806,3.60092553 6.91553712,6.34415178 C6.91642306,6.56076377 6.90956844,6.78131514 6.89581433,7.000587 L0.382185038,7.000587 L0.382185038,0.674702581 L4.19045981,0.674702581 L4.19045981,0.674702581 Z"/>
    <polygon id="logo-splatoon-2-c" points="0 .605 104.231 .605 104.231 87.373 0 87.373 0 .605"/>
    <path id="logo-splatoon-2-e" d="M4.19045981,0.674702581 C5.17196371,2.39984615 6.90068806,3.60092553 6.91553712,6.34415178 C6.91642306,6.56076377 6.90956844,6.78131514 6.89581433,7.000587 L0.382185038,7.000587 L0.382185038,0.674702581 L4.19045981,0.674702581 L4.19045981,0.674702581 Z"/>
  </defs>
  <g fill="none" fill-rule="evenodd">
    <g transform="translate(63.172 49.79)">
      <path fill="#000" d="M9.26275971,8.92418728 C8.89650525,6.90268982 9.9512613,4.76478591 10.191882,3.48999327 C10.12942,3.12870739 9.98817066,2.74754723 9.72980512,2.3301875 C9.50479996,1.96535264 9.17900384,1.62394102 8.748158,1.18812661 C8.39609946,0.831809294 7.12130682,0.242679066 5.19066318,0.760119953 C1.87024004,1.64949366 -0.0611133887,3.8129502 0.0112857477,6.69117077 C0.0843946796,9.58997541 1.76235114,10.0449543 1.87591841,11.409891 C2.00510118,12.9629234 0.278878634,13.9133395 1.25839636,17.4765127 C2.10305295,20.549927 5.37024143,21.8822131 8.43726759,21.4747905 C8.62607318,21.4492379 8.81416898,21.4180069 9.00155498,21.3810975 C10.500643,21.0680777 11.7349773,19.9302756 12.0714203,19.2999772 C12.3816009,18.7200743 12.5995081,17.4417327 12.59312,16.2805074 C12.5746653,12.7407574 9.6857978,11.7711768 9.26275971,8.92418728"/>
      <path fill="#FFF" d="M9.26275971,8.92418728 C9.01291171,7.5464743 9.42530287,6.11339727 9.78871814,4.93655641 C9.88666991,4.65050884 9.99030005,4.33394007 10.0776049,4.00317539 C10.032178,3.5787177 9.9200303,3.13651514 9.75961653,2.7042497 C9.63114355,2.35644993 9.45795346,2.0015522 9.15132182,1.62252143 C9.11796143,1.596259 9.08602064,1.57070636 9.05195046,1.54444393 C8.69208416,1.27117268 7.6394575,1.22929475 6.90056043,1.31163102 C5.3908255,1.48198193 3.782429,2.31102302 2.91576875,3.35868111 C2.10376275,4.34032823 1.57780432,5.64209309 1.721183,7.00064159 C1.91566695,8.85391753 2.46504864,10.2188542 4.32329314,10.9109048 C2.63114077,11.9869547 2.28405079,13.8160976 2.62546241,15.6054919 C3.22736895,18.7676306 5.74004486,20.1396653 8.85675671,19.9082719 C10.5368425,19.7833479 11.683872,19.1927981 12.3915381,18.3133616 C12.5200111,17.7100354 12.5973788,16.9753971 12.59312,16.2805074 C12.5746653,12.7407574 9.7014133,11.7690475 9.26275971,8.92418728"/>
      <path fill="#EFCBFF" d="M12.4530064,17.9955861 C12.4842374,17.8103295 12.5112096,17.6172652 12.5325035,17.4192322 C11.6133183,18.3731973 10.2867106,19.0155622 8.76916795,19.1262903 C7.05501192,19.332131 5.35363222,19.0673773 4.17111299,18.1254787 C5.34653426,19.3512954 7.18561429,19.949653 9.08076815,19.7232283 C10.4535126,19.6231471 11.6168673,18.9601982 12.4530064,17.9955861"/>
    </g>
    <g transform="translate(68.14 52.63)">
      <path fill="#000" d="M6.95833778,3.24099703 C7.00092551,1.50980591 5.42659919,0.169002298 3.54280205,0.147708434 C1.65900492,0.125704775 0.178371598,1.43101862 0.135074075,3.16220973 C0.0924863478,4.89411064 1.58589599,6.31512114 3.46969312,6.33641501 C5.35349026,6.35912846 6.91575006,4.97218814 6.95833778,3.24099703"/>
      <g transform="translate(.71 7.098)">
        <mask id="logo-splatoon-2-b" fill="#fff">
          <use xlink:href="#logo-splatoon-2-a"/>
        </mask>
        <path fill="#000" d="M7.15310566,3.1418386 C6.818792,1.44116869 5.04430336,0.37008735 3.18889804,0.751957305 C1.33349272,1.13453706 0.11406413,2.59245692 0.432762289,4.52664953 C0.735844948,6.36572956 2.54298418,7.29840079 4.3983895,6.91582104 C6.25450461,6.53253149 7.48670952,4.8446379 7.15310566,3.1418386" mask="url(#logo-splatoon-2-b)"/>
      </g>
    </g>
    <g transform="translate(0 .105)">
      <path fill="#C83CA0" d="M72.1895338,50.1484685 C70.4973814,49.2711613 68.9351216,49.949016 68.3623167,50.4458728 C68.600808,50.3848304 69.0167481,50.2961059 69.1707737,50.2769415 C70.509448,50.1058808 71.5223261,50.4962683 71.9198115,50.8731696 C72.4982948,51.4218415 72.754531,51.9123102 72.9312701,52.3900025 C73.2300939,53.1949106 73.1349814,53.9267097 72.9603717,54.6223092 C73.4394836,53.2289808 74.0648134,51.1208883 72.1895338,50.1484685"/>
      <path fill="#A0FF00" d="M75.2799832,86.0423988 C73.2925559,86.4902797 71.9822735,86.0856963 70.7167082,84.8030959 C69.9196079,83.9953487 69.7087987,82.5842753 69.3922299,79.139638 C69.2871802,77.9989967 69.3219602,76.28697 68.7094067,76.1506893 C50.261113,75.5069048 25.2557289,81.4265989 8.91907675,87.3044151 C6.70025616,84.9720272 4.40264827,82.2151817 2.60899515,79.1275714 C0.720939244,75.8759985 0.344747652,71.4049969 0.529294471,67.6054618 C0.529294471,67.6054618 5.72641679,63.329654 8.01053857,61.3649402 C19.2295655,51.7145612 34.1104272,40.7950679 37.078082,35.811594 C38.5005121,33.4224225 38.5792994,31.5038454 37.5437079,29.7683955 C36.7700308,26.6900126 33.1614307,26.0554555 30.3172803,26.2364533 C26.5156159,26.4792034 21.8309659,28.3502242 14.0132787,34.1457041 C11.8924099,32.3570195 9.41380418,29.728647 7.24963784,26.6318094 C4.03000565,22.0231075 3.3663469,14.6753049 3.75886379,9.2176877 C16.7133406,3.04317703 25.6063679,0.233806623 32.3671696,0.233806623 C39.6823216,0.233806623 48.7236961,0.699432441 52.8703211,3.52370856 C61.1862847,9.19000567 67.7966097,17.6848377 66.1080064,28.4488858 C65.2377971,33.9959372 63.0473683,39.1078841 55.5803202,46.2420382 C51.677155,49.9713035 49.0296179,51.7450824 43.4591432,55.497771 C48.9437327,54.1427714 62.9210248,52.141858 66.1406569,51.5683433 C65.8304763,48.5403559 65.6622548,46.4620748 65.6920662,45.4236441 C65.8035041,41.5950074 67.2734905,42.182718 72.2285726,43.1480398 C80.995966,44.8579371 87.8490411,46.5493797 95.421139,49.3708166 C106.755153,53.59268 108.32664,54.5139945 101.540286,62.6021137 C99.6706844,64.8301616 94.9739679,69.7504637 81.3132446,82.3755954 C80.0640046,83.5297229 77.3206452,85.5831611 75.2799832,86.0423988" transform="translate(.71 2.13)"/>
      <mask id="logo-splatoon-2-d" fill="#fff">
        <use xlink:href="#logo-splatoon-2-c"/>
      </mask>
      <path fill="#000" d="M74.7999486,85.4351688 C72.8125213,85.8830497 71.2169011,85.1413134 70.1252357,83.9098183 C69.5325565,83.241191 68.5572975,82.1736586 68.1654904,78.8141967 C68.0327587,77.6763946 67.9653281,76.1971809 67.9411951,75.5392005 C49.4936112,74.8947062 24.4882271,80.4169149 6.06051751,87.3729103 C1.50505028,83.6457744 -0.845792264,74.4830249 0.278523737,67.0301726 C14.4623663,55.4051426 32.8247747,41.8267556 36.5973376,35.204364 C37.9743408,32.7882203 38.3746654,29.9220662 37.3390738,28.1866163 C36.2878668,26.4419391 34.5779695,25.4077671 29.8372457,25.7484689 C25.9383392,26.0302577 18.8680667,28.4946676 10.9304241,34.8082981 C5.35427104,30.4047271 1.38793403,18.9528873 2.64569158,9.3110258 C27.6297818,-4.30001185 46.5004038,1.30595266 51.8224501,4.53765136 C58.9026597,8.83901182 67.0986679,15.8915395 65.0104496,28.8516947 C64.0657119,34.7138953 59.7352498,44.3770507 42.6391165,55.4583773 C48.5843632,53.981293 58.214868,51.8959139 65.6599125,50.9611133 C65.1069818,48.0005565 65.0331631,45.8399391 65.2120315,44.8157043 C65.5058869,43.1363282 67.6863785,42.1695868 71.7080796,43.0348275 C81.0773796,45.0506465 88.4535739,46.8251352 94.9411044,48.7628768 C104.768932,51.6993006 106.782622,54.7535504 101.060251,61.9948836 C99.2566607,64.2761662 94.4932235,69.1425239 80.8325001,81.7676556 C79.5839699,82.921783 76.8399007,84.9759311 74.7999486,85.4351688" mask="url(#logo-splatoon-2-d)"/>
      <path fill="#F03C78" d="M93.9793315,51.0100892 C86.6741167,48.6471801 79.2510759,46.8904364 71.945861,45.4389047 C66.8892782,44.4345441 66.4925025,44.9420478 67.7864597,50.2193771 C68.0639897,51.350791 68.2840263,52.3480536 68.4721221,53.4269427 C60.3201213,54.3723903 43.4752555,56.7147153 29.4617639,61.6357271 C43.9061014,51.0789393 58.5818322,42.6898669 61.6666033,28.4634366 C63.2664822,21.0836932 60.8964752,14.8587871 53.0688509,8.85533712 C41.6617281,0.106398339 20.594999,2.19035779 5.13707363,11.1827564 C4.55433156,16.4203371 6.4679401,25.0777122 10.9566866,30.4309896 C19.8184828,23.7723984 34.7760024,19.4263208 39.7608959,26.3730889 C41.3323831,28.9744893 40.7957777,32.5646347 38.9992854,35.6167552 C33.3088552,45.2834595 16.4327585,57.0241861 2.7982976,68.4540223 C2.51437942,71.7311479 3.50241469,79.7695814 6.8753627,83.2085404 C29.3425182,75.034536 50.580308,72.0037094 64.3396929,71.8319389 C67.3534844,71.7943197 69.0016295,71.7524418 69.8335098,72.0746889 C69.8803563,73.9393216 69.9179754,75.7940171 70.0620639,77.6423245 C70.2097013,79.5325097 71.1317256,81.2154348 71.9856096,81.6164692 C73.3753891,82.269481 75.6176329,81.8137923 76.8292538,80.7320641 C88.1753341,70.5968948 90.3962841,68.5427467 96.2386105,62.476125 C102.511073,55.9637517 102.387569,53.7293156 93.9793315,51.0100892"/>
      <path fill="#F03C78" d="M76.7193064,64.4463042 C76.5858649,63.4405241 76.0641652,62.8379077 75.2975861,62.0954617 C74.6019866,61.4218658 73.4315339,60.5239745 72.7501303,59.7211959 C73.6217591,61.7831517 75.7490161,62.9287615 75.7653414,65.9666861 C75.7710197,67.0597711 75.5779554,68.2557764 75.2968764,68.8761376 C75.2968764,68.8768474 75.2961666,68.8768474 75.2961666,68.8768474 C76.0946864,67.6375446 76.9343745,66.0625085 76.7193064,64.4463042 M72.1893918,50.1481846 C70.4972395,49.2708774 68.9349797,49.948732 68.3621748,50.4455889 C68.600666,50.3845465 69.0166062,50.295822 69.1706318,50.2766575 C70.509306,50.1063066 71.5221841,50.4966941 71.9196696,50.8735955 C72.4981529,51.4215576 72.7550988,51.9127361 72.9318379,52.3904284 C73.229952,53.1946267 73.1348394,53.9271356 72.9602297,54.6220253 C73.4393416,53.2286968 74.0646714,51.1213141 72.1893918,50.1481846"/>
      <path fill="#000" d="M72.4345552,58.6098691 C72.0683007,56.5883717 73.1230568,54.4504678 73.3636775,53.1756751 C73.3012155,52.8143892 73.1599662,52.4332291 72.9016006,52.0158693 C72.6765955,51.6510345 72.3507993,51.3096229 71.9199535,50.8738085 C71.5678949,50.5174911 70.2931023,49.9283609 68.3624587,50.4458018 C65.0420355,51.3351755 63.1106821,53.4986321 63.1830812,56.3768526 C63.2561902,59.2756573 64.9341466,59.7306361 65.0477139,61.0955728 C65.1768967,62.6486053 63.4506741,63.5990214 64.4301919,67.1621946 C65.2748484,70.2356089 68.5420369,71.5678949 71.6090631,71.1604724 C71.7978687,71.1349197 71.9859645,71.1036887 72.1733505,71.0667794 C73.6724385,70.7537596 74.9067728,69.6159574 75.2432158,68.9856591 C75.5533964,68.4057562 75.7713036,67.1274146 75.7649155,65.9661892 C75.7464608,62.4264393 72.8575933,61.4568587 72.4345552,58.6098691"/>
      <path fill="#FFF" d="M72.4345552,58.6098691 C72.1847072,57.2321561 72.5970984,55.7990791 72.9605136,54.6222383 C73.0584654,54.3361907 73.1620955,54.0196219 73.2494004,53.6888572 C73.2039735,53.2643996 73.0918258,52.822197 72.931412,52.3899316 C72.802939,52.0421318 72.629749,51.6872341 72.3231173,51.3082033 C72.2897569,51.2819408 72.2578161,51.2563882 72.2237459,51.2301258 C71.8638797,50.9568545 70.811253,50.9149766 70.0723559,50.9973129 C68.562621,51.1676638 66.9542245,51.9967049 66.0875642,53.044363 C65.2755582,54.0260101 64.7495998,55.3277749 64.8929785,56.6863234 C65.0874624,58.5395994 65.6368441,59.904536 67.4950886,60.5965866 C65.8029363,61.6726365 65.4558463,63.5017794 65.7972579,65.2911737 C66.3991644,68.4533125 68.9118404,69.8253471 72.0285522,69.5939538 C73.708638,69.4690298 74.8556675,68.87848 75.5633336,67.9990434 C75.6918065,67.3957173 75.7691742,66.661079 75.7649155,65.9661892 C75.7464608,62.4264393 72.8732088,61.4547293 72.4345552,58.6098691"/>
      <path fill="#FFF" d="M75.6248019,67.681268 C75.6560329,67.4960114 75.6830051,67.302947 75.7042989,67.1049141 C74.7851138,68.0588792 73.4585061,68.701244 71.9409634,68.8119721 C70.2268074,69.0178128 68.5254277,68.7530591 67.3429085,67.8111605 C68.5183298,69.0369773 70.3574098,69.6353349 72.2525636,69.4089101 C73.6253081,69.308829 74.7886628,68.64588 75.6248019,67.681268"/>
    </g>
    <g transform="translate(68.14 52.63)">
      <path fill="#000" d="M6.95833778,3.24099703 C7.00092551,1.50980591 5.42659919,0.169002298 3.54280205,0.147708434 C1.65900492,0.125704775 0.178371598,1.43101862 0.135074075,3.16220973 C0.0924863478,4.89411064 1.58589599,6.31512114 3.46969312,6.33641501 C5.35349026,6.35912846 6.91575006,4.97218814 6.95833778,3.24099703"/>
      <g transform="translate(.71 7.098)">
        <mask id="logo-splatoon-2-f" fill="#fff">
          <use xlink:href="#logo-splatoon-2-e"/>
        </mask>
        <path fill="#000" d="M7.15310566,3.1418386 C6.818792,1.44116869 5.04430336,0.37008735 3.18889804,0.751957305 C1.33349272,1.13453706 0.11406413,2.59245692 0.432762289,4.52664953 C0.735844948,6.36572956 2.54298418,7.29840079 4.3983895,6.91582104 C6.25450461,6.53253149 7.48670952,4.8446379 7.15310566,3.1418386" mask="url(#logo-splatoon-2-f)"/>
      </g>
    </g>
    <path fill="#F03C78" d="M72.1895338,50.2535182 C70.4973814,49.376211 68.9351216,50.0540657 68.3623167,50.5509225 C68.600808,50.4898801 69.0167481,50.4011557 69.1707737,50.3819912 C70.509448,50.2109305 71.5223261,50.601318 71.9198115,50.9782194 C72.4982948,51.5268913 72.754531,52.0173599 72.9312701,52.4950523 C73.2300939,53.2999603 73.1349814,54.0317594 72.9603717,54.727359 C73.4394836,53.3340305 74.0648134,51.225938 72.1895338,50.2535182"/>
  </g>
</svg>
