<svg xmlns="http://www.w3.org/2000/svg" width="274" height="187" viewBox="0 0 274 187">
  <g fill="#b5cc47" fill-rule="evenodd" transform="translate(0 -10)">
    <path d="M137.260191,138.284906 C140.60142,135.257243 142.620136,132.941028 143.681911,126.899077 C144.652292,121.362627 152.571249,123.756406 154.401802,125.246166 C157.81292,128.01974 162.299254,129.19657 165.557155,128.947831 C168.817743,128.701766 171.613302,126.497885 171.892857,123.644073 C172.274559,119.701693 168.226375,116.829158 164.75612,115.965258 C161.146086,115.069262 156.966189,116.256791 153.052407,116.12306 C149.657417,116.008052 145.988246,114.475498 146.445213,108.781246 C146.609183,106.740517 149.033792,104.143467 152.619633,104.772001 C160.350427,106.120006 163.175554,103.303638 162.516985,100.04596 C161.877232,96.8711935 158.613955,95.2129333 152.485231,97.8313797 C148.888638,99.371957 145.64149,97.767189 144.759813,96.3335963 C142.418533,92.5302962 142.835179,90.5591062 144.321663,88.5264001 C146.539294,85.4987378 149.859019,84.252368 152.321261,84.1266612 C159.103178,83.7789615 161.89336,82.9578552 164.963098,78.6330055 C168.551628,73.5753118 165.382432,67.4103282 159.603153,66.1505853 C154.501259,65.0406208 149.842891,67.5520827 146.6952,71.3821289 C143.988347,74.6772525 137.97252,81.7328823 129.575093,75.2736912 C119.951921,67.8730363 136.319378,56.6182636 139.303099,52.0954925 C146.07964,41.8196283 136.012942,30.0994728 124.763507,35.7589545 C119.476139,38.4201948 118.293403,44.0422319 117.548816,49.4262284 C116.957448,53.7082843 118.083736,59.2527577 113.812445,61.4726867 C107.444486,64.7838579 92.4774967,61.9006248 91.6657096,55.1097817 C91.0528372,49.947778 92.6790995,46.5563684 93.7274338,41.6805484 C94.8779136,36.3152741 93.3430446,30.907206 87.4078592,29.489661 C82.50488,28.3181804 77.3599774,31.1238497 75.8923093,35.9622252 C73.5402771,43.7132545 87.5745175,58.5600328 76.9702121,62.978494 C73.9891792,64.2221891 70.618381,64.1686969 68.943734,62.6923103 C66.1374236,60.2209677 65.2530594,58.2471031 65.2691877,55.7276173 C65.29338,52.0152541 61.2398204,50.3142001 59.0248781,51.0523933 C56.0976059,52.0259526 53.7536378,55.5698152 57.5572099,59.5175444 C60.0624603,62.1199431 61.7801158,63.6738934 61.793556,66.6908572 C61.8150603,72.1336952 59.0571345,73.2730805 57.4228081,73.7438124 C48.6490558,76.2766712 45.1384797,60.9645102 40.4612956,56.4230168 C34.2599945,50.3917638 23.937933,52.6999551 21.5751486,61.1998761 C18.610244,71.8582101 28.4242665,79.6680809 37.5259593,81.0107367 C43.1708367,81.8452161 46.2997116,84.9959105 45.3911551,89.7593968 C44.5820561,93.9986589 39.9747609,96.4726762 35.0637176,92.9261389 C30.0774092,89.3207602 24.5615576,89.3368079 23.0831373,93.7953883 C21.5724606,98.3582785 26.7711239,102.070642 32.8407111,101.126503 C37.8780921,100.345516 42.1440066,102.493231 41.5499505,107.465337 C41.0822321,111.367598 38.5151569,113.301343 33.34875,112.525705 C28.2280398,111.758091 23.5105352,108.06445 17.3468667,110.086458 C12.0675623,111.816933 10.1913126,117.628867 13.3739482,122.082098 C16.9920458,127.137117 24.1368478,126.513933 29.5747463,124.644378 C32.8165187,123.531739 38.6119262,120.266036 42.5740925,123.876764 C46.1545576,127.137117 43.1762128,135.407022 39.6038118,138.736915 C36.1658127,141.941102 27.6769923,141.92238 26.0991147,146.947978 C24.6180064,151.67402 28.314057,155.308819 31.2198249,155.667217 C36.6469713,156.330522 38.0017418,152.008346 40.5016161,147.822577 C42.3267931,144.770843 47.6571702,140.611819 51.4042936,146.300722 C53.041308,148.788112 54.5573608,155.629773 59.7076394,156.343895 C67.5002583,157.427113 68.9141656,163.974566 65.7718506,167.729723 C63.0865017,170.939259 60.6027557,174.520566 60.6161959,178.674241 C60.626948,182.579176 63.6106689,185.727196 67.4733779,185.914419 C72.2688356,186.144436 75.0133213,182.073674 74.8574151,177.957445 C74.7230133,174.392185 73.903162,169.371936 75.8277964,166.068788 C78.3303587,161.781383 90.0098789,162.67203 89.2787328,169.246229 C88.9588564,172.148184 90.163097,175.149101 94.1198872,175.098283 C96.7084667,175.063513 99.0228664,172.343431 98.0659253,167.978462 C97.5014376,165.416183 99.3077983,163.672335 101.552309,162.396544 C103.829076,161.102032 107.842315,161.6637 109.019675,162.230718 C118.446621,166.780236 110.051882,175.520872 117.433231,181.819586 C119.865904,183.892411 123.51357,183.83357 125.491965,182.787796 C127.752604,181.594919 128.849323,179.845722 128.690729,176.842131 C128.408485,171.597214 123.696357,170.562139 121.484102,165.170118 C119.524523,160.398608 119.390122,155.501391 124.868341,153.131684 C130.534722,150.679064 134.991488,156.047013 136.813977,159.368882 C138.528944,162.492831 140.2466,164.228655 144.125437,164.948126 C149.713865,165.980526 152.783603,159.267247 148.59833,155.423828 C144.496386,151.657972 142.585192,151.992299 138.83538,149.732251 C135.913484,147.972355 133.281896,141.884935 137.260191,138.284906 M35.1389826,167.077118 C32.4348175,166.320202 30.5854482,167.823335 29.7548448,169.765104 C29.1688527,171.126482 29.0532672,173.571079 31.8004408,174.713139 C34.5449264,175.855199 36.5367618,174.245081 37.2033949,172.677758 C37.86734,171.10776 37.8431477,167.834033 35.1389826,167.077118 M7.47101927,92.9207897 C1.06273941,90.3986294 -3.04189286,100.749383 3.25348945,102.808835 C9.57306409,104.876311 14.1024062,95.5285377 7.47101927,92.9207897 M169.091923,155.463947 C165.444257,153.995584 163.092225,159.885083 166.670002,161.053889 C170.21821,162.214671 172.82023,156.967079 169.091923,155.463947 M169.202133,142.296826 C166.680754,140.860558 163.858315,142.486723 162.850301,145.075749 C160.718688,150.561381 169.449432,154.594697 171.828345,149.304312 C173.183115,146.295372 171.879417,143.82403 169.202133,142.296826 M52.4714442,35.2079842 C57.2507737,34.0311544 56.2078154,26.4593241 51.1086095,27.5505664 C46.3400322,28.569594 47.8507089,36.3446949 52.4714442,35.2079842 M38.9237385,28.6658801 C42.0714296,27.8902423 41.4800615,22.8994139 38.0931351,23.5199241 C34.8217942,24.1190375 35.7894875,29.4361687 38.9237385,28.6658801 M173.680402,99.8159428 C168.777423,105.585084 179.034971,111.528074 181.696128,105.61183 C183.859998,100.80555 177.492038,95.3279417 173.680402,99.8159428 M34.9696363,43.9833904 C32.7170614,40.9717758 34.0664559,37.1363804 36.9775998,35.1143727 C44.3535729,30.0005121 50.2780061,41.5815877 43.2245974,46.1257556 C40.5284965,47.8615797 36.7410526,46.3477485 34.9696363,43.9833904"/>
    <path d="M266.065033,145.722673 C262.765275,144.77259 257.431788,146.462125 256.919989,151.99681 C256.394721,157.674904 264.080688,160.561007 267.712667,157.231233 C271.304241,153.946274 271.007936,147.147799 266.065033,145.722673 M253.350862,51.7047316 C251.94117,50.6381283 249.058932,50.4678303 247.792902,53.0357449 C246.490957,55.6708824 249.656031,58.4763179 252.017491,57.5441605 C254.356503,56.6254476 255.469891,53.2956735 253.350862,51.7047316 M245.516743,63.0967716 C243.545867,65.2075706 242.787147,69.8414688 246.751346,72.328716 C250.814314,74.874223 255.90088,70.2223986 254.783002,66.2383216 C253.683083,62.3035415 248.461833,59.9417771 245.516743,63.0967716 M224.613785,29.9289949 C225.462294,26.8367417 222.912277,23.1394825 219.648434,24.07164 C217.471043,24.6990536 215.087136,27.5089707 216.743749,30.7804849 C218.440768,34.1326667 223.747317,33.0571003 224.613785,29.9289949 M98.8009633,91.7023545 C96.6235718,92.3252867 94.2396649,95.1352037 95.8962782,98.406718 C97.5932967,101.7589 102.895357,100.687815 103.766314,97.555228 C104.614823,94.4629748 102.064806,90.770197 98.8009633,91.7023545 M114.334519,98.5456453 C112.879932,98.9579457 111.281681,100.840187 112.39058,103.031653 C113.521925,105.276898 117.073094,104.555372 117.652235,102.462499 C118.222397,100.392034 116.5164,97.9182316 114.334519,98.5456453 M166.641298,172.141271 C161.711863,172.956909 158.147227,178.975599 161.595137,182.964158 C163.902723,185.626184 169.442725,187.154385 172.989404,182.681821 C176.621383,178.09722 171.633585,171.312189 166.641298,172.141271 M182.731548,174.408924 C179.481174,174.946707 177.128693,178.912858 179.404853,181.543514 C180.926782,183.300272 184.576718,184.304134 186.911241,181.35529 C189.308617,178.334741 186.022327,173.862178 182.731548,174.408924 M119.578216,85.8763702 C120.359383,80.1848317 112.879932,76.1066427 108.772069,78.9793011 C103.564288,82.6227821 104.511565,89.0985877 108.686769,91.8995417 C112.861974,94.7049772 118.936222,90.6043805 119.578216,85.8763702 M244.376418,122.530774 C242.75572,126.927152 243.09692,131.202528 245.62,135.746796 C249.216063,142.213638 244.60987,146.964056 240.892592,146.354569 C231.841826,144.866702 221.556458,154.914284 222.71474,163.823558 C223.406118,169.138649 231.177385,173.754621 227.810285,181.086398 C226.032456,184.958437 219.594561,186.379081 215.913198,183.569164 C210.08138,179.119008 213.798659,174.507517 212.739145,169.232761 C211.51801,163.128922 205.672724,159.279291 198.440192,159.153808 C187.943819,158.970065 188.751923,166.485585 182.843784,165.907468 C178.996311,165.53102 176.423847,162.497027 175.853684,157.903462 C175.310459,153.529492 168.47749,142.890349 156.279608,146.000528 C147.157012,148.330922 147.709216,157.020601 136.822259,158.858027 C131.021867,159.839482 127.111542,158.790804 124.736614,154.233092 C122.429028,149.796381 124.211346,144.431994 130.586389,140.801957 C137.302632,136.979215 145.168178,140.084913 151.022443,132.959286 C156.104519,126.770298 152.872103,117.08572 147.727174,112.460785 C144.512716,109.574682 141.881888,109.063788 135.619082,110.439616 C121.194424,113.6215 124.498672,90.1427833 140.786458,96.6141074 C144.858405,98.2319384 150.506154,95.7178021 153.32105,92.3208051 C156.836302,88.0857627 159.341425,80.2341285 155.736383,75.7929359 C151.390579,70.4464749 145.715893,71.9388232 141.006442,68.0847105 C133.598821,62.0256868 136.56187,51.001132 141.845972,47.6713579 C147.866347,43.875505 155.067452,44.6508091 159.345914,52.2425148 C164.68838,61.7388692 166.479677,65.7005385 172.535968,67.2332205 C179.4273,68.9765342 186.16599,66.2741738 188.814775,59.753553 C192.765506,50.0107146 182.875211,42.3921198 185.164839,32.2100919 C186.848389,24.7393874 200.442495,17.9767641 208.631282,29.521176 C214.602273,37.9374826 203.414522,48.9037776 205.470698,56.2669254 C207.80522,64.6249721 219.51824,67.1122193 225.956135,65.6109079 C233.368245,63.8810388 238.697242,68.0443768 236.60964,75.1789668 C235.626447,78.5535561 236.169672,84.3392067 239.684925,88.1933194 C243.280988,92.132581 246.63013,94.0999711 252.129727,93.911747 C257.225272,93.741449 258.836991,90.1338203 265.010008,87.8258342 C273.068601,84.8052854 281.396562,89.237515 282.59525,99.1013546 C283.43927,106.04772 278.954292,111.093919 273.903642,112.290487 C266.042585,114.145839 262.055939,110.15728 256.489,110.103502 C249.445026,110.036279 247.079077,115.216923 244.376418,122.530774" transform="rotate(82 189.02 104.421)"/>
  </g>
</svg>
