<svg xmlns="http://www.w3.org/2000/svg" width="175" height="217" viewBox="0 0 175 217">
  <path fill="#ec46ac" fill-rule="evenodd" d="M159.142348,107.19721 C158.572573,106.953605 158.005366,106.761284 157.45099,106.622814 C154.004111,105.761219 150.010557,106.902319 146.273658,106.774106 C143.037236,106.663842 139.52876,105.191951 139.965073,99.7351831 C140.1242,97.7786446 142.436663,95.2887379 145.860443,95.8887772 C153.244412,97.1837339 155.941858,94.483557 155.313053,91.3602754 C154.702213,88.313922 151.588986,86.7240743 145.734682,89.2370594 C142.300636,90.711515 139.200241,89.1755169 138.355846,87.7985036 C136.122946,84.1521109 136.523328,82.2648078 137.940064,80.3159622 C140.057469,77.4132079 143.229727,76.2182578 145.578122,76.0977371 C152.050966,75.7643819 154.717613,74.9745866 157.646048,70.8307254 C161.072395,65.9816898 158.04643,60.0710461 152.530911,58.8632747 C147.659596,57.7965381 143.211761,60.2069525 140.206329,63.8789879 C137.621812,67.0381692 131.877869,73.8027149 123.857395,67.6100016 C114.671706,60.5146649 130.302006,49.7216502 133.148312,45.3880329 C139.621156,35.5361054 130.009419,24.2994719 119.265834,29.7229041 C114.217427,32.2769176 113.088144,37.6670143 112.377209,42.8288909 C111.815134,46.9317238 112.890519,52.2500209 108.812269,54.3758012 C102.729541,57.5503682 88.4364146,54.7860845 87.6638825,48.2779658 C87.0787087,43.3289237 88.6314725,40.0774286 89.6324277,35.4001991 C90.7334783,30.2562724 89.2679773,25.0713173 83.6010311,23.7148182 C78.9170742,22.5916677 74.0046942,25.2790232 72.6007904,29.9177887 C70.5321497,36.7695196 81.7633801,49.4062449 75.5908232,54.657871 C75.1288439,55.0143046 75.0338815,55.0809756 74.9337859,55.1450824 C74.5411035,55.378431 74.515438,55.3938166 74.492339,55.4092023 C74.0996566,55.6117796 74.0714246,55.624601 74.0406259,55.6374223 C70.7862384,57.0144356 67.5652159,56.9605859 65.9662542,55.5476729 C63.2893408,53.1782869 62.4449453,51.2858552 62.4603446,48.8677481 C62.480877,45.3111048 58.610517,43.6802287 56.4956784,44.3854031 C53.7032701,45.3187976 51.465237,48.7164561 55.0969077,52.5038837 C57.4915004,54.998919 59.1289604,56.4887602 59.1417932,59.3786931 C59.1623256,64.5969837 56.5316101,65.6893629 54.9685801,66.1432388 C54.6836928,66.2252955 54.4090718,66.2842737 54.1395839,66.3278663 C46.3654987,67.5946159 43.0854456,53.7449907 38.7762053,49.5344584 C32.8500373,43.7520283 22.9970453,45.9675581 20.7410463,54.1142456 C17.9101398,64.3354281 27.2780536,71.8205338 35.9709642,73.1103619 C41.3607229,73.90785 44.3507556,76.931125 43.4806946,81.4955266 C42.7081625,85.5598954 38.3090929,87.93441 33.6200029,84.531623 C28.8590494,81.0775505 23.5950518,81.0903719 22.1834484,85.3675752 C20.7384798,89.7396565 25.7047573,93.298864 31.4974646,92.3962408 C36.3097491,91.6449095 40.3828666,93.706583 39.8130922,98.473562 C39.3639456,102.212268 36.9128887,104.066236 31.9799763,103.325162 C27.0932618,102.586652 22.5889636,99.0479586 16.7038605,100.983983 C12.0122039,102.530238 10.133488,107.466459 12.3535553,111.584677 C13.729227,114.425889 17.8023446,118.297938 23.7644442,118.792842 C29.7265439,119.29031 34.5952925,117.00811 37.5776256,119.390317 C39.8849556,121.234027 40.6241225,124.582965 39.2125191,127.031843 C38.8070039,127.57034 38.3860894,128.049859 37.9523422,128.455013 L37.4133663,128.888375 C34.0203849,131.529574 26.5055215,131.703944 25.0631194,136.327324 C23.6463829,140.85839 27.1753915,144.343234 29.9472673,144.684282 C32.0723722,144.945837 33.5455729,144.402212 34.7056542,143.397018 C37.7033867,141.066096 39.4332425,139.15315 43.3498004,139.871146 C47.6949725,140.663505 45.1181546,146.168994 47.3818532,149.105084 C51.1983156,154.066948 53.1873932,150.182078 55.1739042,155.474732 C57.4504356,161.536668 61.2386659,178.01467 59.3060525,188.533308 C58.8286739,191.125786 59.4523459,196.264584 65.0012308,195.720959 C68.9280549,195.336318 70.5244501,191.505298 69.6749215,187.274251 C68.2941166,180.399442 69.6851877,175.36065 71.0967911,172.178391 C72.2722718,169.537192 74.3819773,169.226915 77.0383584,170.793684 C82.8669973,174.234936 83.0209904,207.9833 83.1313521,215.191465 C83.2314477,221.62522 82.0277349,233.333679 90.3099973,233.92859 C96.9291342,234.405544 98.2534749,227.728184 98.7077545,219.455847 C99.2518635,209.491091 99.1851332,191.759161 101.579726,183.948392 C103.204353,178.660867 106.440775,177.132561 108.727572,179.84556 C111.360855,182.971405 108.594112,188.935899 115.351842,190.779609 C119.568687,191.928402 123.344085,188.93077 123.243989,179.699396 C123.15416,171.237303 123.541709,150.82571 126.821762,150.010272 C130.707521,149.046106 128.875003,156.810717 136.361635,157.641541 C140.285892,158.077467 144.525836,153.351516 144.017659,148.735829 C143.270792,140.342972 137.254795,140.068595 138.258317,133.891267 C138.574002,131.955243 140.039503,130.139739 143.31699,129.842284 C148.729848,129.349944 147.325944,121.072478 151.080809,120.305761 C156.072752,119.287746 158.623905,123.167487 162.14778,120.162162 C166.716242,116.264471 164.722031,109.197341 159.142348,107.19721 Z M33.6892998,155.626024 C31.1073487,154.900336 29.3466942,156.341456 28.5484967,158.200552 C27.9915549,159.505765 27.8811932,161.852073 30.5042091,162.947017 C33.1246584,164.039396 35.0290398,162.498269 35.662978,160.993042 C36.2994829,159.49038 36.2712508,156.351713 33.6892998,155.626024 M7.27178288,84.5264944 C1.15569012,82.1109516 -2.76343436,92.0321143 3.24999633,94.0091669 C9.28139287,95.9887838 13.6060325,87.0292225 7.27178288,84.5264944 M161.588272,144.491961 C158.110594,143.081613 155.864861,148.728136 159.278375,149.851287 C162.663657,150.96418 165.153212,145.933081 161.588272,144.491961 M161.696067,131.865493 C159.291208,130.48848 156.591196,132.050121 155.631305,134.532335 C153.593463,139.789089 161.93219,143.658573 164.206155,138.583882 C165.499697,135.699078 164.252352,133.329692 161.696067,131.865493 M50.2384253,29.1972286 C54.8068873,28.0689496 53.8084987,20.8094996 48.9397501,21.855722 C44.3866873,22.8301448 45.831656,30.2870436 50.2384253,29.1972286 M37.3055711,22.9224586 C40.3110032,22.1813844 39.7489284,17.3938913 36.5150732,17.988802 C33.3890132,18.5631986 34.3129718,23.6635328 37.3055711,22.9224586 M165.971942,91.1397482 C161.287985,96.6708798 171.084513,102.366125 173.625399,96.6965225 C175.688907,92.0885283 169.611312,86.8369022 165.971942,91.1397482 M33.5327401,37.6080361 C31.3819698,34.7232317 32.6678122,31.0435034 35.4499542,29.1074792 C42.4925722,24.2045939 48.1466856,35.3078854 41.4120539,39.6620168 C38.8378025,41.3262284 35.2215311,39.8748512 33.5327401,37.6080361" transform="translate(0 -17)"/>
</svg>
